<?xml version="1.0" encoding="UTF-8" standalone="no"?>
<svg
   xmlns:osb="http://www.openswatchbook.org/uri/2009/osb"
   xmlns:dc="http://purl.org/dc/elements/1.1/"
   xmlns:cc="http://creativecommons.org/ns#"
   xmlns:rdf="http://www.w3.org/1999/02/22-rdf-syntax-ns#"
   xmlns:svg="http://www.w3.org/2000/svg"
   xmlns="http://www.w3.org/2000/svg"
   id="svg8"
   version="1.1"
   viewBox="0 0 65.000001 65"
   height="65mm"
   width="65mm">
  <defs
     id="defs2">
    <linearGradient
       osb:paint="gradient"
       id="linearGradient2388">
      <stop
         id="stop2384"
         offset="0"
         style="stop-color:#000000;stop-opacity:1;" />
      <stop
         id="stop2386"
         offset="1"
         style="stop-color:#000000;stop-opacity:0;" />
    </linearGradient>
  </defs>
  <metadata
     id="metadata5">
    <rdf:RDF>
      <cc:Work
         rdf:about="">
        <dc:format>image/svg+xml</dc:format>
        <dc:type
           rdf:resource="http://purl.org/dc/dcmitype/StillImage" />
        <dc:title></dc:title>
      </cc:Work>
    </rdf:RDF>
  </metadata>
  <g
     transform="translate(-76.50374,-79.455748)"
     id="layer1">
    <path
       id="path16"
       d="m 105.80138,130.30375 h -1.90061 c 0,0 -0.84345,0 -1.6869,0.29801 -0.84343,0.29801 -1.68689,0.89402 -1.68689,2.08606 0,0.59601 0.7733,0.71558 1.75747,0.82274 0.98417,0.10716 0.70601,0.20189 1.54945,0.74824 1.68691,1.0927 1.96748,3.99185 1.96748,3.99185"
       style="fill:none;stroke:#000000;stroke-width:1.6766665;stroke-linecap:butt;stroke-linejoin:miter;stroke-miterlimit:4;stroke-dasharray:none;stroke-opacity:1" />
    <path
       id="path906"
       d="m 105.62646,136.92708 c 0,0 0,2.68278 -6.779167,2.68278 -6.779167,0 -6.779166,-12.35556 -6.779166,-12.35556 0,0 -7.909027,-1.50546 -9.038889,-7.09459"
       style="fill:none;stroke:#000000;stroke-width:1.79473972;stroke-linecap:round;stroke-linejoin:miter;stroke-miterlimit:4;stroke-dasharray:none;stroke-opacity:1" />
    <circle
       r="0"
       cy="125.4128"
       cx="92.97776"
       id="path2443"
       style="fill:none;fill-opacity:1;stroke:#000000;stroke-width:1.5;stroke-miterlimit:4;stroke-dasharray:none;stroke-opacity:1" />
    <path
       id="path2445"
       d="m 99.045213,139.91787 c 0,0 2.259707,3.6238 6.779167,3.6238"
       style="fill:none;stroke:#000000;stroke-width:1.82815492;stroke-linecap:butt;stroke-linejoin:miter;stroke-miterlimit:4;stroke-dasharray:none;stroke-opacity:1" />
    <path
       id="path2453"
       d="m 86.418825,113.92453 6.779167,-1.5301 c 0,0 3.389582,-1.29422 6.779168,3.88264 3.38959,5.17685 2.14699,7.68544 2.14699,7.68544"
       style="fill:none;stroke:#000000;stroke-width:1.82815492;stroke-linecap:round;stroke-linejoin:round;stroke-miterlimit:4;stroke-dasharray:none;stroke-opacity:1" />
    <path
       id="path2457"
       d="m 93.490274,134.28125 c 0,0 -6.914624,-1.71602 -9.263735,-7.36343 -2.182963,-5.24798 -2.470294,-9.56931 -2.470294,-15.21356 l 10e-7,-1.86956"
       style="fill:none;stroke:#000000;stroke-width:1.63981557;stroke-linecap:butt;stroke-linejoin:miter;stroke-miterlimit:4;stroke-dasharray:none;stroke-opacity:1" />
    <path
       id="path2459"
       d="m 81.495638,107.98261 -0.608254,-1.45423 -0.51793,-3.04173 0.0206,-4.100067 -0.563092,-3.041732 -2.252366,-12.16693 c -0.363442,-4.138829 0.95872,-3.81735 4.991741,-1.49042 0,0 14.437325,13.338264 15.951888,15.926698 1.514575,2.588421 -2.807806,3.426521 -2.807806,3.426521 0,0 -10.601964,3.64675 -13.631094,7.52939 z"
       style="fill:none;stroke:#000000;stroke-width:2.01760721;stroke-linecap:butt;stroke-linejoin:round;stroke-miterlimit:4;stroke-dasharray:none;stroke-opacity:1" />
    <path
       id="path2461"
       d="m 97.190506,97.239585 c 0,0 2.786646,-1.66993 8.435954,-1.66993"
       style="fill:none;stroke:#000000;stroke-width:1.37111628;stroke-linecap:butt;stroke-linejoin:miter;stroke-miterlimit:4;stroke-dasharray:none;stroke-opacity:1" />
    <path
       id="path2465"
       d="m 87.096738,109.28832 c 0,0 1.800198,-2.20017 4.454338,-2.94434 2.65414,-0.74418 6.162219,-0.0324 6.623808,-0.42062 0.923181,-0.77653 2.215626,-4.40032 4.061996,-5.17685"
       style="fill:none;stroke:#000000;stroke-width:1.93115699;stroke-linecap:round;stroke-linejoin:miter;stroke-miterlimit:4;stroke-dasharray:none;stroke-opacity:1" />
    <path
       id="path2471"
       d="m 95.463731,102.53125 c 0.138474,-0.0659 0.74936,-6.054631 -2.46682,-10.054165"
       style="fill:none;stroke:#000000;stroke-width:1.54229879;stroke-linecap:butt;stroke-linejoin:miter;stroke-miterlimit:4;stroke-dasharray:none;stroke-opacity:1" />
    <ellipse
       transform="matrix(0.92340924,0.38381684,-0.31832103,0.94798298,0,0)"
       style="fill:none;stroke:#000000;stroke-width:1.50911546;stroke-miterlimit:4;stroke-dasharray:none;stroke-opacity:1"
       ry="5.1515861"
       rx="5.5268078"
       cy="72.429573"
       cx="127.76202"
       id="path32" />
    <path
       id="path2453-7"
       d="m 125.32746,113.92453 -6.77917,-1.5301 c 0,0 -3.38958,-1.29422 -6.77916,3.88264 -3.3896,5.17685 -1.75115,7.68544 -1.75115,7.68544"
       style="fill:none;stroke:#000000;stroke-width:1.82815492;stroke-linecap:round;stroke-linejoin:round;stroke-miterlimit:4;stroke-dasharray:none;stroke-opacity:1" />
    <path
       id="path2445-6"
       d="m 112.60355,139.91787 c 0,0 -2.25973,3.6238 -6.77917,3.6238"
       style="fill:none;stroke:#000000;stroke-width:1.82815492;stroke-linecap:butt;stroke-linejoin:miter;stroke-miterlimit:4;stroke-dasharray:none;stroke-opacity:1" />
    <path
       id="path906-7"
       d="m 105.62646,136.92708 c 0,0 0,2.68278 6.77916,2.68278 6.77916,0 6.77916,-12.35556 6.77916,-12.35556 0,0 7.90903,-1.50546 9.0389,-7.09459"
       style="fill:none;stroke:#000000;stroke-width:1.69901371;stroke-linecap:round;stroke-linejoin:miter;stroke-miterlimit:4;stroke-dasharray:none;stroke-opacity:1" />
    <path
       id="path2465-6"
       d="m 124.15618,109.28832 c 0,0 -1.8002,-2.20017 -4.45432,-2.94434 -2.65415,-0.74418 -6.16223,-0.0324 -6.62383,-0.42062 -0.92317,-0.77653 -2.21562,-4.40032 -4.06199,-5.17685"
       style="fill:none;stroke:#000000;stroke-width:1.93115699;stroke-linecap:round;stroke-linejoin:miter;stroke-miterlimit:4;stroke-dasharray:none;stroke-opacity:1" />
    <path
       id="path2461-6"
       d="m 114.45825,97.239585 c 0,0 -3.18248,-1.66993 -8.83179,-1.66993"
       style="fill:none;stroke:#000000;stroke-width:1.37111628;stroke-linecap:butt;stroke-linejoin:miter;stroke-miterlimit:4;stroke-dasharray:none;stroke-opacity:1" />
    <path
       id="path16-9"
       d="m 105.82438,130.3125 h 1.97595 c 0,0 0.8769,0 1.75381,0.29729 0.87688,0.29729 1.75378,0.89188 1.75378,2.08106 0,0.59459 -0.80397,0.71387 -1.82718,0.82076 -1.02319,0.1069 -0.73397,0.2014 -1.61088,0.74645 -1.75379,1.09008 -2.04548,3.98227 -2.04548,3.98227"
       style="fill:none;stroke:#000000;stroke-width:1.70422125;stroke-linecap:butt;stroke-linejoin:miter;stroke-miterlimit:4;stroke-dasharray:none;stroke-opacity:1" />
    <ellipse
       transform="matrix(-0.92233958,0.38638026,0.31609132,0.94872877,0,0)"
       style="fill:none;stroke:#000000;stroke-width:1.50262797;stroke-miterlimit:4;stroke-dasharray:none;stroke-opacity:1"
       ry="5.1509352"
       rx="5.4937649"
       cy="154.75122"
       cx="-74.7798"
       id="path32-4" />
    <path
       id="path2457-9"
       d="m 117.9118,134.77178 c 0,0 6.91463,-1.71602 9.26374,-7.36343 2.18296,-5.24798 2.47029,-9.56931 2.47029,-15.21356 v -1.86956"
       style="fill:none;stroke:#000000;stroke-width:1.63981569;stroke-linecap:butt;stroke-linejoin:miter;stroke-miterlimit:4;stroke-dasharray:none;stroke-opacity:1" />
    <path
       id="path2459-2"
       d="m 129.90643,107.94397 0.60825,-1.45423 0.51789,-3.04173 -0.0206,-4.100066 0.56309,-3.04173 2.25237,-12.166931 c 0.36344,-4.138829 -0.95872,-3.81735 -4.99174,-1.49042 0,0 -14.43733,13.338261 -15.95189,15.926701 -1.51456,2.588416 2.80781,3.426516 2.80781,3.426516 0,0 10.60196,3.64675 13.63109,7.52939 z"
       style="fill:none;stroke:#000000;stroke-width:2.01760721;stroke-linecap:butt;stroke-linejoin:round;stroke-miterlimit:4;stroke-dasharray:none;stroke-opacity:1" />
    <path
       id="path2471-3"
       d="m 115.93834,102.00208 c -0.13847,-0.0607 -0.74936,-5.576634 2.46682,-9.260412"
       style="fill:none;stroke:#000000;stroke-width:1.48016751;stroke-linecap:butt;stroke-linejoin:miter;stroke-miterlimit:4;stroke-dasharray:none;stroke-opacity:1" />
  </g>
</svg>
