<?xml version="1.0" encoding="UTF-8" standalone="no"?>
<svg
   xmlns:osb="http://www.openswatchbook.org/uri/2009/osb"
   xmlns:dc="http://purl.org/dc/elements/1.1/"
   xmlns:cc="http://creativecommons.org/ns#"
   xmlns:rdf="http://www.w3.org/1999/02/22-rdf-syntax-ns#"
   xmlns:svg="http://www.w3.org/2000/svg"
   xmlns="http://www.w3.org/2000/svg"
   id="svg8"
   version="1.1"
   viewBox="0 0 65.000001 65"
   height="65mm"
   width="65mm">
  <defs
     id="defs2">
    <linearGradient
       osb:paint="gradient"
       id="linearGradient2388">
      <stop
         id="stop2384"
         offset="0"
         style="stop-color:#000000;stop-opacity:1;" />
      <stop
         id="stop2386"
         offset="1"
         style="stop-color:#000000;stop-opacity:0;" />
    </linearGradient>
  </defs>
  <metadata
     id="metadata5">
    <rdf:RDF>
      <cc:Work
         rdf:about="">
        <dc:format>image/svg+xml</dc:format>
        <dc:type
           rdf:resource="http://purl.org/dc/dcmitype/StillImage" />
        <dc:title></dc:title>
      </cc:Work>
    </rdf:RDF>
  </metadata>
  <g
     transform="translate(-76.50374,-79.455748)"
     id="layer1">
    <path
       id="path16"
       d="m 109.50557,138.25065 c 0,0 -0.28057,-2.89915 -1.96748,-3.99185 -0.84344,-0.54635 -0.56528,-0.64108 -1.54945,-0.74824 -0.98417,-0.10716 -1.75747,-0.22673 -1.75747,-0.82274 0,-1.19204 0.84346,-1.78805 1.68689,-2.08606 0.84345,-0.29801 1.6869,-0.29801 1.6869,-0.29801 l 1.91211,0.004 1.98745,0.004 c 0,0 0.8769,0 1.75381,0.29729 0.87688,0.29729 1.75378,0.89188 1.75378,2.08106 0,0.59459 -0.80397,0.71387 -1.82718,0.82076 -1.02319,0.1069 -0.73397,0.2014 -1.61088,0.74645 -1.75379,1.09008 -2.04548,3.98227 -2.04548,3.98227"
       style="fill:none;stroke:#000000;stroke-width:1.6766665;stroke-linecap:butt;stroke-linejoin:miter;stroke-miterlimit:4;stroke-dasharray:none;stroke-opacity:1" />
    <path
       id="path906"
       d="m 109.33065,136.92708 c 0,0 0,2.68278 -6.77918,2.68278 -6.779175,0 -6.779174,-12.35556 -6.779174,-12.35556 0,0 -7.909027,-1.50546 -9.038889,-7.09459"
       style="fill:none;stroke:#000000;stroke-width:1.79473972;stroke-linecap:round;stroke-linejoin:miter;stroke-miterlimit:4;stroke-dasharray:none;stroke-opacity:1" />
    <circle
       r="0"
       cy="125.4128"
       cx="92.97776"
       id="path2443"
       style="fill:none;fill-opacity:1;stroke:#000000;stroke-width:1.5;stroke-miterlimit:4;stroke-dasharray:none;stroke-opacity:1" />
    <path
       id="path2445"
       d="m 102.7494,139.91787 c 0,0 2.25971,3.6238 6.77917,3.6238 4.51944,0 6.77917,-3.6238 6.77917,-3.6238"
       style="fill:none;stroke:#000000;stroke-width:1.82815492;stroke-linecap:butt;stroke-linejoin:miter;stroke-miterlimit:4;stroke-dasharray:none;stroke-opacity:1" />
    <path
       id="path2453"
       d="m 90.122994,113.92453 6.779167,-1.5301 c 0,0 3.389579,-1.29422 6.779189,3.88264 3.38959,5.17685 2.14699,7.68544 2.14699,7.68544"
       style="fill:none;stroke:#000000;stroke-width:1.82815492;stroke-linecap:round;stroke-linejoin:round;stroke-miterlimit:4;stroke-dasharray:none;stroke-opacity:1" />
    <path
       id="path2457"
       d="m 97.194443,134.28125 c 0,0 -6.914624,-1.71602 -9.263735,-7.36343 -2.182963,-5.24798 -2.470294,-9.56931 -2.470294,-15.21356 l 10e-7,-2.39873"
       style="fill:none;stroke:#000000;stroke-width:1.63981557;stroke-linecap:butt;stroke-linejoin:miter;stroke-miterlimit:4;stroke-dasharray:none;stroke-opacity:1" />
    <path
       id="path2459"
       d="m 85.199807,107.98261 -0.608254,-1.45423 -0.51793,-3.04173 0.0206,-4.100067 -0.563092,-3.041732 -2.252366,-12.16693 c -0.363442,-4.138829 0.95872,-3.81735 4.991741,-1.49042 0,0 14.437324,13.338264 15.951904,15.926698 1.51458,2.588421 -2.807822,3.426521 -2.807822,3.426521 0,0 -10.601964,3.64675 -13.631094,7.52939 z"
       style="fill:none;stroke:#000000;stroke-width:2.01760721;stroke-linecap:butt;stroke-linejoin:round;stroke-miterlimit:4;stroke-dasharray:none;stroke-opacity:1" />
    <path
       id="path2461"
       d="m 100.89468,97.239585 c 0,0 2.78666,-1.66993 8.43597,-1.66993 5.64931,0 8.30262,1.66993 8.30262,1.66993"
       style="fill:none;stroke:#000000;stroke-width:1.37111628;stroke-linecap:butt;stroke-linejoin:miter;stroke-miterlimit:4;stroke-dasharray:none;stroke-opacity:1" />
    <path
       id="path2465"
       d="m 90.800907,109.28832 c 0,0 1.800198,-2.20017 4.454338,-2.94434 2.65414,-0.74418 6.162225,-0.0324 6.623815,-0.42062 0.92319,-0.77653 2.21564,-4.40032 4.06201,-5.17685"
       style="fill:none;stroke:#000000;stroke-width:1.93115699;stroke-linecap:round;stroke-linejoin:miter;stroke-miterlimit:4;stroke-dasharray:none;stroke-opacity:1" />
    <path
       id="path2471"
       d="m 99.1679,102.00208 c 0.138474,-0.0659 0.74936,-5.525461 -2.46682,-9.524995"
       style="fill:none;stroke:#000000;stroke-width:1.54229879;stroke-linecap:butt;stroke-linejoin:miter;stroke-miterlimit:4;stroke-dasharray:none;stroke-opacity:1" />
    <ellipse
       transform="matrix(0.92340924,0.38381684,-0.31832103,0.94798298,0,0)"
       style="fill:none;stroke:#000000;stroke-width:1.50911546;stroke-miterlimit:4;stroke-dasharray:none;stroke-opacity:1"
       ry="5.1515861"
       rx="5.5268078"
       cy="71.004387"
       cx="131.2821"
       id="path32" />
    <path
       id="path2453-7"
       d="m 129.03165,113.92453 -6.77917,-1.5301 c 0,0 -3.38958,-1.29422 -6.77916,3.88264 -3.3896,5.17685 -1.75115,7.68544 -1.75115,7.68544"
       style="fill:none;stroke:#000000;stroke-width:1.82815492;stroke-linecap:round;stroke-linejoin:round;stroke-miterlimit:4;stroke-dasharray:none;stroke-opacity:1" />
    <path
       id="path906-7"
       d="m 109.33065,136.92708 c 0,0 0,2.68278 6.77916,2.68278 6.77916,0 6.77916,-12.35556 6.77916,-12.35556 0,0 7.90903,-1.50546 9.0389,-7.09459"
       style="fill:none;stroke:#000000;stroke-width:1.69901371;stroke-linecap:round;stroke-linejoin:miter;stroke-miterlimit:4;stroke-dasharray:none;stroke-opacity:1" />
    <path
       id="path2465-6"
       d="m 127.86037,109.28832 c 0,0 -1.8002,-2.20017 -4.45432,-2.94434 -2.65415,-0.74418 -6.16223,-0.0324 -6.62383,-0.42062 -0.92317,-0.77653 -2.21562,-4.40032 -4.06199,-5.17685"
       style="fill:none;stroke:#000000;stroke-width:1.93115699;stroke-linecap:round;stroke-linejoin:miter;stroke-miterlimit:4;stroke-dasharray:none;stroke-opacity:1" />
    <ellipse
       transform="matrix(-0.92233958,0.38638026,0.31609132,0.94872877,0,0)"
       style="fill:none;stroke:#000000;stroke-width:1.50262797;stroke-miterlimit:4;stroke-dasharray:none;stroke-opacity:1"
       ry="5.1509352"
       rx="5.4937649"
       cy="156.18645"
       cx="-78.303993"
       id="path32-4" />
    <path
       id="path2457-9"
       d="m 121.61599,134.77178 c 0,0 6.91463,-1.71602 9.26374,-7.36343 2.18296,-5.24798 2.47029,-9.56931 2.47029,-15.21356 v -2.39873"
       style="fill:none;stroke:#000000;stroke-width:1.63981569;stroke-linecap:butt;stroke-linejoin:miter;stroke-miterlimit:4;stroke-dasharray:none;stroke-opacity:1" />
    <path
       id="path2459-2"
       d="m 133.61062,107.94397 0.60825,-1.45423 0.51789,-3.04173 -0.0206,-4.100066 0.56309,-3.04173 2.25237,-12.166931 c 0.36344,-4.138829 -0.95872,-3.81735 -4.99174,-1.49042 0,0 -14.43733,13.338261 -15.95189,15.926701 -1.51456,2.588416 2.80781,3.426516 2.80781,3.426516 0,0 10.60196,3.64675 13.63109,7.52939 z"
       style="fill:none;stroke:#000000;stroke-width:2.01760721;stroke-linecap:butt;stroke-linejoin:round;stroke-miterlimit:4;stroke-dasharray:none;stroke-opacity:1" />
    <path
       id="path2471-3"
       d="m 119.64253,102.00208 c -0.13847,-0.0607 -0.74936,-5.576634 2.46682,-9.260412"
       style="fill:none;stroke:#000000;stroke-width:1.48016751;stroke-linecap:butt;stroke-linejoin:miter;stroke-miterlimit:4;stroke-dasharray:none;stroke-opacity:1" />
  </g>
</svg>
